<svg width="48" height="48" viewBox="0 0 48 48" xmlns="http://www.w3.org/2000/svg">
  <defs>
    <linearGradient id="endoscope-gradient" x1="0%" y1="0%" x2="100%" y2="100%">
      <stop offset="0%" style="stop-color:#2d5016;stop-opacity:1" />
      <stop offset="100%" style="stop-color:#4a7c23;stop-opacity:1" />
    </linearGradient>
    <linearGradient id="lens-gradient" x1="0%" y1="0%" x2="100%" y2="100%">
      <stop offset="0%" style="stop-color:#00d4aa;stop-opacity:1" />
      <stop offset="100%" style="stop-color:#0ea5e9;stop-opacity:1" />
    </linearGradient>
  </defs>
  
  <!-- 内視鏡のメインチューブ -->
  <path d="M8 24 Q12 20 16 22 Q20 24 24 22 Q28 20 32 22 Q36 24 40 22" 
        stroke="url(#endoscope-gradient)" stroke-width="4" fill="none" stroke-linecap="round"/>
  
  <!-- 内視鏡の先端部分（カメラ部） -->
  <circle cx="40" cy="22" r="6" fill="url(#endoscope-gradient)"/>
  <circle cx="40" cy="22" r="4" fill="url(#lens-gradient)"/>
  <circle cx="40" cy="22" r="2.5" fill="white" opacity="0.8"/>
  <circle cx="40" cy="22" r="1" fill="url(#endoscope-gradient)"/>
  
  <!-- ライト部分 -->
  <circle cx="37" cy="18" r="1.5" fill="#ffd700" opacity="0.9"/>
  <circle cx="43" cy="18" r="1.5" fill="#ffd700" opacity="0.9"/>
  
  <!-- 制御部（ハンドル） -->
  <rect x="4" y="20" width="8" height="8" rx="2" fill="url(#endoscope-gradient)"/>
  <rect x="6" y="22" width="4" height="4" rx="1" fill="white" opacity="0.3"/>
  
  <!-- 操作ボタン -->
  <circle cx="8" cy="18" r="1" fill="#e74c3c"/>
  <circle cx="8" cy="30" r="1" fill="#22c55e"/>
  
  <!-- 画像データを示すライン -->
  <path d="M14 12 L18 12 M20 12 L24 12 M26 12 L30 12" 
        stroke="url(#lens-gradient)" stroke-width="2" opacity="0.6" stroke-linecap="round"/>
  <path d="M14 36 L18 36 M20 36 L24 36 M26 36 L30 36" 
        stroke="url(#lens-gradient)" stroke-width="2" opacity="0.6" stroke-linecap="round"/>
  
  <!-- 検査を表すスコープライン -->
  <circle cx="32" cy="32" r="8" stroke="url(#endoscope-gradient)" stroke-width="2" fill="none" opacity="0.3"/>
  <circle cx="32" cy="32" r="4" fill="url(#lens-gradient)" opacity="0.2"/>
</svg>