<svg width="48" height="48" viewBox="0 0 48 48" xmlns="http://www.w3.org/2000/svg">
  <defs>
    <linearGradient id="stomach-gradient" x1="0%" y1="0%" x2="100%" y2="100%">
      <stop offset="0%" style="stop-color:#2d5016;stop-opacity:1" />
      <stop offset="100%" style="stop-color:#4a7c23;stop-opacity:1" />
    </linearGradient>
    <linearGradient id="highlight-gradient" x1="0%" y1="0%" x2="100%" y2="100%">
      <stop offset="0%" style="stop-color:#ffffff;stop-opacity:0.3" />
      <stop offset="100%" style="stop-color:#ffffff;stop-opacity:0.1" />
    </linearGradient>
  </defs>
  
  <!-- 胃の外形 -->
  <path d="M24 6 C28 6 32 8 34 12 C36 16 36 20 34 24 C32 28 30 30 28 32 C26 34 24 36 22 38 C20 40 18 40 16 38 C14 36 12 32 12 28 C12 24 12 20 14 16 C16 12 20 8 24 6 Z" 
        fill="url(#stomach-gradient)"/>
  
  <!-- 胃の内部構造（ハイライト） -->
  <path d="M24 8 C26 8 28 9 29 11 C30 13 30 15 29 17 C28 19 27 20 26 21 C25 22 24 23 23 24 C22 25 21 25 20 24 C19 23 18 21 18 19 C18 17 18 15 19 13 C20 11 22 9 24 8 Z" 
        fill="url(#highlight-gradient)"/>
  
  <!-- 胃の分泌線を表す小さな円 -->
  <circle cx="20" cy="16" r="1.5" fill="white" opacity="0.6"/>
  <circle cx="26" cy="18" r="1" fill="white" opacity="0.6"/>
  <circle cx="22" cy="22" r="1.2" fill="white" opacity="0.6"/>
  <circle cx="18" cy="26" r="1" fill="white" opacity="0.6"/>
  <circle cx="24" cy="28" r="1.3" fill="white" opacity="0.6"/>
  
  <!-- 消化を示す波状のライン -->
  <path d="M16 30 Q18 28 20 30 Q22 32 24 30 Q26 28 28 30" 
        stroke="white" stroke-width="1.5" fill="none" opacity="0.7" stroke-linecap="round"/>
  
  <!-- プラスマーク（治療・改善を象徴） -->
  <g transform="translate(32, 34)">
    <circle r="6" fill="#e74c3c" opacity="0.9"/>
    <path d="M-3 0 L3 0 M0 -3 L0 3" stroke="white" stroke-width="2" stroke-linecap="round"/>
  </g>
</svg>