<svg width="48" height="48" viewBox="0 0 48 48" xmlns="http://www.w3.org/2000/svg">
  <defs>
    <linearGradient id="stethoscope-gradient" x1="0%" y1="0%" x2="100%" y2="100%">
      <stop offset="0%" style="stop-color:#2d5016;stop-opacity:1" />
      <stop offset="100%" style="stop-color:#4a7c23;stop-opacity:1" />
    </linearGradient>
  </defs>
  
  <!-- 聴診器のメインボディ -->
  <path d="M24 8 C28 8 32 10 32 14 C32 18 28 20 24 20 C20 20 16 18 16 14 C16 10 20 8 24 8 Z" 
        fill="url(#stethoscope-gradient)" opacity="0.2"/>
  
  <!-- 聴診器のチューブ部分 -->
  <path d="M14 16 Q12 20 12 24 Q12 32 16 36 Q20 40 24 40 Q28 40 32 36 Q36 32 36 24 Q36 20 34 16" 
        stroke="url(#stethoscope-gradient)" stroke-width="2.5" fill="none" stroke-linecap="round"/>
  
  <!-- 左右のイヤピース -->
  <circle cx="14" cy="16" r="2.5" fill="url(#stethoscope-gradient)"/>
  <circle cx="34" cy="16" r="2.5" fill="url(#stethoscope-gradient)"/>
  
  <!-- 聴診部分（胸当て） -->
  <circle cx="24" cy="40" r="5" fill="url(#stethoscope-gradient)"/>
  <circle cx="24" cy="40" r="3" fill="white" opacity="0.3"/>
  
  <!-- ハートマーク（健康を象徴） -->
  <path d="M24 14 C22 12 20 12 19 13 C18 14 18 15 19 16 L24 20 L29 16 C30 15 30 14 29 13 C28 12 26 12 24 14 Z" 
        fill="#e74c3c" opacity="0.8"/>
</svg>