<?xml version="1.0" encoding="iso-8859-1"?>
<!-- Uploaded to: SVG Repo, www.svgrepo.com, Generator: SVG Repo Mixer Tools -->
<svg fill="#000000" height="800px" width="800px" version="1.1" id="Layer_1" xmlns="http://www.w3.org/2000/svg" xmlns:xlink="http://www.w3.org/1999/xlink" 
	 viewBox="0 0 512 512" xml:space="preserve">
<g>
	<g>
		<path d="M126.243,426.873l-8.083-5.072l-8.083,5.072c-2.986,1.874-29.174,19.135-29.174,47.869
			c0,20.545,16.713,37.258,37.258,37.258c20.545,0,37.258-16.713,37.258-37.258C155.417,446.008,129.229,428.746,126.243,426.873z
			 M118.16,481.583c-3.772,0-6.841-3.068-6.841-6.841c0-5.74,3.328-10.988,6.84-14.928c3.561,4.048,6.841,9.344,6.841,14.928
			C125,478.514,121.931,481.583,118.16,481.583z"/>
	</g>
</g>
<g>
	<g>
		<path d="M218.136,426.873l-8.083-5.072l-8.083,5.072c-2.986,1.874-29.174,19.135-29.174,47.869
			c0,20.545,16.713,37.258,37.258,37.258c20.544,0,37.257-16.713,37.257-37.258C247.311,446.008,221.122,428.746,218.136,426.873z
			 M210.054,481.583c-3.772,0-6.841-3.068-6.841-6.841c0-5.74,3.327-10.986,6.839-14.927c3.518,3.945,6.842,9.189,6.842,14.927
			C216.893,478.514,213.825,481.583,210.054,481.583z"/>
	</g>
</g>
<g>
	<g>
		<path d="M310.03,426.873l-8.083-5.072l-8.083,5.072c-2.986,1.874-29.174,19.135-29.174,47.869
			c0,20.545,16.713,37.258,37.257,37.258c20.544,0,37.258-16.713,37.258-37.258C339.205,446.008,313.016,428.746,310.03,426.873z
			 M301.947,481.583c-3.772,0-6.84-3.068-6.84-6.841c0-5.74,3.328-10.988,6.84-14.928c3.561,4.048,6.841,9.344,6.841,14.928
			C308.787,478.514,305.719,481.583,301.947,481.583z"/>
	</g>
</g>
<g>
	<g>
		<path d="M401.924,426.873l-8.083-5.072l-8.083,5.072c-2.986,1.874-29.174,19.135-29.174,47.869
			c0,20.545,16.713,37.258,37.258,37.258c20.545,0,37.258-16.713,37.258-37.258C431.099,446.008,404.91,428.746,401.924,426.873z
			 M393.841,481.583c-3.772,0-6.841-3.068-6.841-6.841c0-5.74,3.328-10.988,6.84-14.928c3.561,4.048,6.841,9.344,6.841,14.928
			C400.682,478.514,397.613,481.583,393.841,481.583z"/>
	</g>
</g>
<g>
	<g>
		<path d="M443.143,155.653h-13.994v-20.39c0-48.412-39.387-87.8-87.801-87.8h-39.256v-1.37C302.093,20.678,281.417,0,256.001,0
			c-25.416,0-46.092,20.678-46.092,46.093v1.37h-39.257c-48.413,0-87.801,39.387-87.801,87.8v20.39H68.857
			c-20.691,0-37.524,16.834-37.524,37.524c0,20.691,16.833,37.525,37.524,37.525h13.994v121.069
			c0,34.365,27.957,62.321,62.32,62.321h221.657c34.364,0,62.32-27.957,62.32-62.321V230.7h13.994
			c20.691,0,37.524-16.834,37.524-37.524C480.668,172.486,463.835,155.653,443.143,155.653z M82.851,200.283H68.857
			c-3.919,0-7.107-3.189-7.107-7.107c0-3.918,3.189-7.107,7.107-7.107h13.994V200.283z M240.324,46.093L240.324,46.093
			c0.001-8.644,7.034-15.676,15.676-15.676s15.675,7.032,15.675,15.676v1.37h-31.351V46.093z M170.652,77.881h39.257h92.186h39.256
			c27.871,0,51.155,19.977,56.31,46.362H114.342C119.496,97.858,142.78,77.881,170.652,77.881z M398.732,155.652V230.7V351.77
			c0,17.592-14.311,31.904-31.903,31.904H145.171c-17.591,0-31.903-14.311-31.903-31.904V230.7v-75.049v-0.993h285.464V155.652z
			 M443.143,200.283h-13.994v-14.214h13.994c3.919,0,7.107,3.189,7.107,7.107C450.25,197.095,447.061,200.283,443.143,200.283z"/>
	</g>
</g>
</svg>